<mxfile host="Electron" agent="Mozilla/5.0 (Windows NT 10.0; Win64; x64) AppleWebKit/537.36 (KHTML, like Gecko) draw.io/26.2.2 Chrome/134.0.6998.178 Electron/35.1.2 Safari/537.36" version="26.2.2" pages="3">
  <diagram name="structure" id="Dahm2iH1nHgYejnUkIqc">
    <mxGraphModel dx="788" dy="490" grid="1" gridSize="10" guides="1" tooltips="1" connect="1" arrows="1" fold="1" page="1" pageScale="1" pageWidth="850" pageHeight="1100" math="0" shadow="0">
      <root>
        <mxCell id="0" />
        <mxCell id="1" parent="0" />
        <mxCell id="kl79jJlU1wFNDWbPW0iV-21" style="edgeStyle=orthogonalEdgeStyle;rounded=0;orthogonalLoop=1;jettySize=auto;html=1;exitX=0.5;exitY=0;exitDx=0;exitDy=0;entryX=0.5;entryY=1;entryDx=0;entryDy=0;" parent="1" source="kl79jJlU1wFNDWbPW0iV-5" target="kl79jJlU1wFNDWbPW0iV-20" edge="1">
          <mxGeometry relative="1" as="geometry" />
        </mxCell>
        <mxCell id="86YI9iS-tSVmvQNRwnrU-9" style="edgeStyle=orthogonalEdgeStyle;rounded=0;orthogonalLoop=1;jettySize=auto;html=1;exitX=0.5;exitY=1;exitDx=0;exitDy=0;" edge="1" parent="1" source="kl79jJlU1wFNDWbPW0iV-5">
          <mxGeometry relative="1" as="geometry">
            <mxPoint x="328.83333333333337" y="510" as="targetPoint" />
          </mxGeometry>
        </mxCell>
        <mxCell id="kl79jJlU1wFNDWbPW0iV-5" value="Generator" style="rounded=0;whiteSpace=wrap;html=1;fontFamily=Times New Roman;fontStyle=0" parent="1" vertex="1">
          <mxGeometry x="280" y="385" width="97.5" height="70" as="geometry" />
        </mxCell>
        <mxCell id="kl79jJlU1wFNDWbPW0iV-19" style="edgeStyle=orthogonalEdgeStyle;rounded=0;orthogonalLoop=1;jettySize=auto;html=1;exitX=1;exitY=0.5;exitDx=0;exitDy=0;entryX=0;entryY=0.5;entryDx=0;entryDy=0;" parent="1" target="kl79jJlU1wFNDWbPW0iV-5" edge="1">
          <mxGeometry relative="1" as="geometry">
            <mxPoint x="190" y="420" as="sourcePoint" />
          </mxGeometry>
        </mxCell>
        <mxCell id="kl79jJlU1wFNDWbPW0iV-20" value="Evaluator" style="rounded=0;whiteSpace=wrap;html=1;fontFamily=Times New Roman;fontStyle=0" parent="1" vertex="1">
          <mxGeometry x="283.75" y="260" width="90" height="60" as="geometry" />
        </mxCell>
        <mxCell id="kl79jJlU1wFNDWbPW0iV-22" value="Image" style="text;html=1;align=center;verticalAlign=middle;whiteSpace=wrap;rounded=0;fontFamily=Times New Roman;" parent="1" vertex="1">
          <mxGeometry x="320" y="340" width="80" height="30" as="geometry" />
        </mxCell>
        <mxCell id="kl79jJlU1wFNDWbPW0iV-23" value="" style="endArrow=classic;html=1;rounded=0;exitX=1;exitY=0.5;exitDx=0;exitDy=0;entryX=1;entryY=0.5;entryDx=0;entryDy=0;" parent="1" source="kl79jJlU1wFNDWbPW0iV-20" target="kl79jJlU1wFNDWbPW0iV-5" edge="1">
          <mxGeometry width="50" height="50" relative="1" as="geometry">
            <mxPoint x="480" y="470" as="sourcePoint" />
            <mxPoint x="530" y="420" as="targetPoint" />
            <Array as="points">
              <mxPoint x="450" y="290" />
              <mxPoint x="450" y="360" />
              <mxPoint x="450" y="420" />
            </Array>
          </mxGeometry>
        </mxCell>
        <mxCell id="kl79jJlU1wFNDWbPW0iV-24" value="Loss" style="text;html=1;align=center;verticalAlign=middle;whiteSpace=wrap;rounded=0;fontFamily=Times New Roman;" parent="1" vertex="1">
          <mxGeometry x="377.5" y="260" width="80" height="30" as="geometry" />
        </mxCell>
        <mxCell id="86YI9iS-tSVmvQNRwnrU-7" style="edgeStyle=orthogonalEdgeStyle;rounded=0;orthogonalLoop=1;jettySize=auto;html=1;exitX=1;exitY=0.5;exitDx=0;exitDy=0;entryX=0;entryY=0.5;entryDx=0;entryDy=0;" edge="1" parent="1" source="86YI9iS-tSVmvQNRwnrU-1" target="kl79jJlU1wFNDWbPW0iV-20">
          <mxGeometry relative="1" as="geometry" />
        </mxCell>
        <mxCell id="86YI9iS-tSVmvQNRwnrU-1" value="Images set" style="rounded=0;whiteSpace=wrap;html=1;fontFamily=Times New Roman;" vertex="1" parent="1">
          <mxGeometry x="100" y="260" width="90" height="60" as="geometry" />
        </mxCell>
        <mxCell id="86YI9iS-tSVmvQNRwnrU-3" value="Training" style="text;html=1;align=center;verticalAlign=middle;whiteSpace=wrap;rounded=0;fontFamily=Times New Roman;" vertex="1" parent="1">
          <mxGeometry x="200" y="260" width="80" height="30" as="geometry" />
        </mxCell>
        <mxCell id="86YI9iS-tSVmvQNRwnrU-4" value="Reference" style="text;html=1;align=center;verticalAlign=middle;whiteSpace=wrap;rounded=0;fontFamily=Times New Roman;" vertex="1" parent="1">
          <mxGeometry x="200" y="290" width="80" height="30" as="geometry" />
        </mxCell>
        <mxCell id="86YI9iS-tSVmvQNRwnrU-10" value="Output image" style="rounded=1;whiteSpace=wrap;html=1;fontFamily=Times New Roman;" vertex="1" parent="1">
          <mxGeometry x="283.75" y="510" width="90" height="50" as="geometry" />
        </mxCell>
        <mxCell id="86YI9iS-tSVmvQNRwnrU-30" value="Latent vector" style="rounded=1;whiteSpace=wrap;html=1;fontFamily=Times New Roman;" vertex="1" parent="1">
          <mxGeometry x="100" y="395" width="90" height="50" as="geometry" />
        </mxCell>
      </root>
    </mxGraphModel>
  </diagram>
  <diagram id="Gzi3t-29f1xiL4OOLHb9" name="generator">
    <mxGraphModel dx="788" dy="490" grid="1" gridSize="10" guides="1" tooltips="1" connect="1" arrows="1" fold="1" page="1" pageScale="1" pageWidth="850" pageHeight="1100" math="0" shadow="0">
      <root>
        <mxCell id="0" />
        <mxCell id="1" parent="0" />
        <mxCell id="_5LqWCw-oSwA1aLrnJc0-1" style="edgeStyle=orthogonalEdgeStyle;rounded=0;orthogonalLoop=1;jettySize=auto;html=1;exitX=1;exitY=0.5;exitDx=0;exitDy=0;entryX=0;entryY=0.5;entryDx=0;entryDy=0;" edge="1" parent="1" source="_5LqWCw-oSwA1aLrnJc0-2" target="_5LqWCw-oSwA1aLrnJc0-4">
          <mxGeometry relative="1" as="geometry" />
        </mxCell>
        <mxCell id="_5LqWCw-oSwA1aLrnJc0-2" value="Fully connected&lt;div&gt;Neural network&lt;/div&gt;" style="rounded=0;whiteSpace=wrap;html=1;fontFamily=Times New Roman;horizontal=0;" vertex="1" parent="1">
          <mxGeometry x="175" y="350" width="90" height="170" as="geometry" />
        </mxCell>
        <mxCell id="_5LqWCw-oSwA1aLrnJc0-3" style="edgeStyle=orthogonalEdgeStyle;rounded=0;orthogonalLoop=1;jettySize=auto;html=1;exitX=1;exitY=0.5;exitDx=0;exitDy=0;" edge="1" parent="1" source="_5LqWCw-oSwA1aLrnJc0-4">
          <mxGeometry relative="1" as="geometry">
            <mxPoint x="490" y="435" as="targetPoint" />
          </mxGeometry>
        </mxCell>
        <mxCell id="_5LqWCw-oSwA1aLrnJc0-4" value="Convolution layers" style="rounded=0;whiteSpace=wrap;html=1;fontFamily=Times New Roman;horizontal=0;" vertex="1" parent="1">
          <mxGeometry x="360" y="350" width="90" height="170" as="geometry" />
        </mxCell>
        <mxCell id="_5LqWCw-oSwA1aLrnJc0-5" value="" style="edgeStyle=orthogonalEdgeStyle;rounded=0;orthogonalLoop=1;jettySize=auto;html=1;" edge="1" parent="1" target="_5LqWCw-oSwA1aLrnJc0-2">
          <mxGeometry relative="1" as="geometry">
            <mxPoint x="150" y="435" as="sourcePoint" />
          </mxGeometry>
        </mxCell>
        <mxCell id="_5LqWCw-oSwA1aLrnJc0-6" value="&lt;div&gt;Generated&lt;/div&gt;Feature&lt;div&gt;maps&lt;/div&gt;" style="text;html=1;align=center;verticalAlign=middle;whiteSpace=wrap;rounded=0;fontFamily=Times New Roman;" vertex="1" parent="1">
          <mxGeometry x="270" y="350" width="80" height="70" as="geometry" />
        </mxCell>
        <mxCell id="_5LqWCw-oSwA1aLrnJc0-7" value="Output image" style="rounded=1;whiteSpace=wrap;html=1;fontFamily=Times New Roman;" vertex="1" parent="1">
          <mxGeometry x="490" y="410" width="90" height="50" as="geometry" />
        </mxCell>
        <mxCell id="_5LqWCw-oSwA1aLrnJc0-8" value="Latent vector" style="rounded=1;whiteSpace=wrap;html=1;fontFamily=Times New Roman;" vertex="1" parent="1">
          <mxGeometry x="60" y="410" width="90" height="50" as="geometry" />
        </mxCell>
      </root>
    </mxGraphModel>
  </diagram>
  <diagram id="CRfLKNhTAg4yFMDN7W7J" name="evaluator">
    <mxGraphModel dx="788" dy="490" grid="1" gridSize="10" guides="1" tooltips="1" connect="1" arrows="1" fold="1" page="1" pageScale="1" pageWidth="850" pageHeight="1100" math="0" shadow="0">
      <root>
        <mxCell id="0" />
        <mxCell id="1" parent="0" />
        <mxCell id="KBNhvcPPOMQMi5Gl_Drx-1" style="edgeStyle=orthogonalEdgeStyle;rounded=0;orthogonalLoop=1;jettySize=auto;html=1;exitX=1;exitY=0.5;exitDx=0;exitDy=0;entryX=0;entryY=0.5;entryDx=0;entryDy=0;" edge="1" parent="1" source="KBNhvcPPOMQMi5Gl_Drx-2" target="KBNhvcPPOMQMi5Gl_Drx-4">
          <mxGeometry relative="1" as="geometry" />
        </mxCell>
        <mxCell id="KBNhvcPPOMQMi5Gl_Drx-2" value="Encodeer&lt;div&gt;(Convolution layers)&lt;/div&gt;" style="rounded=0;whiteSpace=wrap;html=1;fontFamily=Times New Roman;horizontal=0;" vertex="1" parent="1">
          <mxGeometry x="175" y="320" width="90" height="170" as="geometry" />
        </mxCell>
        <mxCell id="KBNhvcPPOMQMi5Gl_Drx-3" style="edgeStyle=orthogonalEdgeStyle;rounded=0;orthogonalLoop=1;jettySize=auto;html=1;exitX=1;exitY=0.5;exitDx=0;exitDy=0;" edge="1" parent="1" source="KBNhvcPPOMQMi5Gl_Drx-4">
          <mxGeometry relative="1" as="geometry">
            <mxPoint x="490" y="405" as="targetPoint" />
          </mxGeometry>
        </mxCell>
        <mxCell id="KBNhvcPPOMQMi5Gl_Drx-4" value="Decoder&lt;div&gt;(Convolution layers)&lt;/div&gt;" style="rounded=0;whiteSpace=wrap;html=1;fontFamily=Times New Roman;horizontal=0;" vertex="1" parent="1">
          <mxGeometry x="360" y="320" width="90" height="170" as="geometry" />
        </mxCell>
        <mxCell id="KBNhvcPPOMQMi5Gl_Drx-5" value="" style="edgeStyle=orthogonalEdgeStyle;rounded=0;orthogonalLoop=1;jettySize=auto;html=1;" edge="1" parent="1" target="KBNhvcPPOMQMi5Gl_Drx-2">
          <mxGeometry relative="1" as="geometry">
            <mxPoint x="150" y="405" as="sourcePoint" />
          </mxGeometry>
        </mxCell>
        <mxCell id="KBNhvcPPOMQMi5Gl_Drx-6" value="&lt;div&gt;Extracted&lt;/div&gt;Feature&lt;div&gt;maps&lt;/div&gt;" style="text;html=1;align=center;verticalAlign=middle;whiteSpace=wrap;rounded=0;fontFamily=Times New Roman;" vertex="1" parent="1">
          <mxGeometry x="270" y="330" width="80" height="60" as="geometry" />
        </mxCell>
        <mxCell id="KBNhvcPPOMQMi5Gl_Drx-7" value="Reconstructed image" style="rounded=1;whiteSpace=wrap;html=1;fontFamily=Times New Roman;" vertex="1" parent="1">
          <mxGeometry x="490" y="380" width="90" height="50" as="geometry" />
        </mxCell>
        <mxCell id="KBNhvcPPOMQMi5Gl_Drx-8" value="Original image" style="rounded=1;whiteSpace=wrap;html=1;fontFamily=Times New Roman;" vertex="1" parent="1">
          <mxGeometry x="60" y="380" width="90" height="50" as="geometry" />
        </mxCell>
      </root>
    </mxGraphModel>
  </diagram>
</mxfile>
